<svg id="Layer_1" data-name="Layer 1" xmlns="http://www.w3.org/2000/svg" viewBox="0 0 68.25 78.62"><defs><style>.cls-1{fill:none;stroke-width:2px;}.cls-1,.cls-2{stroke:#fff;stroke-miterlimit:10;}.cls-2{fill:#fff;stroke-width:0.45px;}</style></defs><path class="cls-1" d="M61.42,44.63C73.66,25,64.26,22,54.88,14.33,46.39,7.41,31.86-2.45,25,2.21S5.51,23.5,9.21,30s8,9,8,9L1.05,62.25l1.82,11,6.2,4.33L19,75.5l2.4-3.43-.94-5.27L25.61,66l1.94-2.78-.66-5.32,4.87-.72,3.76-5.39S49.18,64.26,61.42,44.63ZM52.65,30.74C51.4,32.54,48.87,32,48.87,32l-17-11.85c-3.43-2.39,1.51-8.42,1.51-8.42a25.2,25.2,0,0,1,6.14,2.34c3.16,1.72,5.88,4.1,9.8,6.84a16.48,16.48,0,0,1,5.49,6.74Z"/><rect class="cls-2" x="-1.98" y="58.75" width="35.65" height="3.58" transform="translate(-42.88 38.9) rotate(-55.1)"/></svg>